<svg xmlns="http://www.w3.org/2000/svg" height="32" viewBox="0 0 213 32"><g clip-path="url(#a)" fill="#fff"><path d="M22.8 8.533H3.733A.911.911 0 0 1 2.8 7.6V3.867c0-.534.4-.934.933-.934H22.8c.533 0 .933.4.933.933V7.6c0 .533-.4.933-.933.933Zm26 19.6V24.4c0-.534-.4-.933-.933-.933H29.2c-.533 0-.933.4-.933.933v3.733c0 .534.4.934.933.934h18.533c.534 0 .934-.4 1.067-.934Zm-38.4-4.8 6.8-7.466c.4-.4.4-.934 0-1.334l-2.667-2.666c-.4-.4-.933-.4-1.333-.134 0 0-.133 0-.133.133l-10.134 11.2c-.133.134-.266.4-.266.667v4.4c0 .534.4.934.933.934h19.067c.533 0 .933-.4.933-.934V24.4c0-.534-.4-.933-.933-.933H10.4v-.134ZM48.8 7.6V3.867c0-.534-.4-.934-.933-.934H29.2c-.533 0-.933.4-.933.933v14c0 .534.4.934.933.934H44c.533 0 .933-.4.933-.934v-3.733c0-.533-.4-.933-.933-.933H33.867V8.533h13.866c.534 0 1.067-.4 1.067-.933ZM70.267 22l2.666 2.666c.4.4.4.934.134 1.334l-.134.133c-5.466 4.667-13.6 4.134-18.4-1.066-4.666-5.067-4.666-12.934 0-18.134 4.8-5.2 12.934-5.733 18.4-1.066.4.4.4.933.134 1.333l-.134.133-2.666 2.534c-.4.4-.934.4-1.334.133C65.6 7.333 60.8 7.867 58.267 11.2c-2.667 3.333-2.134 8.133 1.2 10.666 2.8 2.267 6.666 2.267 9.466 0 .4-.266 1.067-.266 1.334.134Zm34.666-6c0 7.333-6 13.333-13.333 13.333s-13.333-6-13.333-13.333c0-7.334 6-13.334 13.333-13.334s13.333 6 13.333 13.334ZM99.2 16c0-4.267-3.467-7.6-7.6-7.6-4.267 0-7.6 3.333-7.6 7.6 0 4.133 3.467 7.6 7.6 7.6 4.133 0 7.6-3.467 7.6-7.6Zm-23.733 1.866v-3.733c0-.533-.4-.933-.934-.933h-10.8c-.533 0-.933.4-.933.933v3.733c0 .534.4.934.933.934h10.8c.4 0 .934-.4.934-.934ZM114.667 3.733H129.2v2.4h-11.733v8.8H128v2.4h-10.667V27.6h-2.666V3.733Zm20.133 0h2.667v21.6h11.466v2.4H134.8v-24Zm18.8 0h14.533v2.4H156.4V14.4h10.4v2.4h-10.4v8.533h11.733v2.4H153.6v-24Zm20.133 0h14.534v2.4h-11.734V14.4h10.4v2.4h-10.4v8.533h11.734v2.4h-14.534v-24Zm25.734 2.534h-7.334V3.733H209.6v2.4h-7.333v21.6H199.6l-.133-21.466Z"/></g><defs><clipPath id="a"><path fill="#fff" d="M0 0h212.267v32H0z"/></clipPath></defs></svg>